<svg width="24" height="24" viewBox="0 0 24 24" fill="none" xmlns="http://www.w3.org/2000/svg">
  <defs>
    <mask id="orbit-cutout">
      <rect width="24" height="24" fill="white"/>
      <circle cx="17" cy="17" r="7.5" fill="black"/>
    </mask>
  </defs>

  <g stroke="currentColor" stroke-width="1.5" stroke-linecap="round" stroke-linejoin="round">
    
    <g mask="url(#orbit-cutout)">
      <path d="M4 7H7.5L9 5H13L14.5 7H18C19.1046 7 20 7.89543 20 9V15C20 16.1046 19.1046 17 18 17H4C2.89543 17 2 16.1046 2 15V9C2 7.89543 2.89543 7 4 7Z"/>
      <circle cx="11" cy="12" r="3"/>
    </g>
    
    <g transform="translate(17, 17)">
      <circle cx="0" cy="0" r="5.5"/>
      
      <path d="M-4.8 -2.5 C-2 -1.5 2 -1.5 4.8 -2.5"/>
      
      <path d="M-5.1 1.5 C-2 3.2 2 3.2 5.1 1.5"/>
    </g>
  </g>
</svg>